<?xml version="1.0" standalone="no"?>
<!DOCTYPE svg PUBLIC "-//W3C//DTD SVG 20010904//EN"
 "http://www.w3.org/TR/2001/REC-SVG-20010904/DTD/svg10.dtd">
<svg version="1.0" xmlns="http://www.w3.org/2000/svg"
 width="700.000000pt" height="700.000000pt" viewBox="0 0 700.000000 700.000000"
 preserveAspectRatio="xMidYMid meet">
<metadata>
Created by potrace 1.11, written by Peter Selinger 2001-2013
</metadata>
<g transform="translate(0.000000,700.000000) scale(0.100000,-0.100000)"
fill="#000000" stroke="none">
<path d="M394 6986 c-142 -45 -276 -162 -346 -302 l-43 -87 0 -3097 0 -3097
43 -87 c32 -64 61 -104 112 -156 52 -51 92 -80 156 -112 l87 -43 3097 0 3097
0 87 43 c119 59 209 149 268 268 l43 87 0 3097 0 3097 -43 87 c-59 119 -149
209 -268 268 l-87 43 -3081 2 c-2470 1 -3089 -1 -3122 -11z m4466 -2804 c0
-1943 0 -1925 -49 -2128 -121 -495 -482 -819 -1035 -929 -339 -67 -736 -49
-1031 47 -412 133 -730 445 -838 818 -53 183 -60 250 -64 643 l-5 367 490 0
489 0 6 -312 c6 -344 16 -416 66 -524 78 -167 213 -236 456 -236 233 1 376 73
458 230 77 146 71 -16 74 2020 l4 1822 489 0 490 0 0 -1818z"/>
</g>
</svg>
